<?xml version="1.0" standalone="no"?><!DOCTYPE svg PUBLIC "-//W3C//DTD SVG 1.1//EN" "http://www.w3.org/Graphics/SVG/1.1/DTD/svg11.dtd"><svg xmlns="http://www.w3.org/2000/svg" viewBox="0 0 1300 700" version="1.1"><clipPath id="box"><rect x="0" y="0" width="1300" height="700" style="fill:none;stroke:none;" /></clipPath><g clip-path="url(#box)"><rect x="0.00" y="0.00" width="1300.00" height="700.00" style="fill:#FFFFFF;stroke:none;" /><path d="M0.00 675.00 L1300.00 675.00 M0.00 625.00 L1300.00 625.00 M0.00 575.00 L1300.00 575.00 M0.00 525.00 L1300.00 525.00 M0.00 475.00 L1300.00 475.00 M0.00 425.00 L1300.00 425.00 M0.00 375.00 L1300.00 375.00 M0.00 325.00 L1300.00 325.00 M0.00 275.00 L1300.00 275.00 M0.00 224.00 L1300.00 224.00 M0.00 175.00 L1300.00 175.00 M0.00 125.00 L1300.00 125.00 M0.00 74.00 L1300.00 74.00 M0.00 24.00 L1300.00 24.00 M46.00 0.00 L46.00 700.00 M139.00 0.00 L139.00 700.00 M232.00 0.00 L232.00 700.00 M325.00 0.00 L325.00 700.00 M417.00 0.00 L417.00 700.00 M510.00 0.00 L510.00 700.00 M603.00 0.00 L603.00 700.00 M696.00 0.00 L696.00 700.00 M789.00 0.00 L789.00 700.00 M882.00 0.00 L882.00 700.00 M975.00 0.00 L975.00 700.00 M1067.00 0.00 L1067.00 700.00 M1160.00 0.00 L1160.00 700.00 M1253.00 0.00 L1253.00 700.00 " style="fill:none;stroke:#D0D0D0;stroke-width:1;" /><path d="M46.43 0.00 L46.43 700.00 " style="fill:none;stroke:#000000;stroke-width:1;" /><path d="M33.43 725.00 L59.43 725.00 M33.43 675.00 L59.43 675.00 M33.43 625.00 L59.43 625.00 M33.43 575.00 L59.43 575.00 M33.43 525.00 L59.43 525.00 M33.43 475.00 L59.43 475.00 M33.43 425.00 L59.43 425.00 M33.43 375.00 L59.43 375.00 M33.43 325.00 L59.43 325.00 M33.43 275.00 L59.43 275.00 M33.43 225.00 L59.43 225.00 M33.43 175.00 L59.43 175.00 M33.43 125.00 L59.43 125.00 M33.43 75.00 L59.43 75.00 M33.43 25.00 L59.43 25.00 " style="fill:none;stroke:#000000;stroke-width:1;" /><path d="M0.00 675.00 L1300.00 675.00 " style="fill:none;stroke:#000000;stroke-width:1;" /><path d="M-46.43 662.00 L-46.43 688.00 M46.43 662.00 L46.43 688.00 M139.29 662.00 L139.29 688.00 M232.14 662.00 L232.14 688.00 M325.00 662.00 L325.00 688.00 M417.86 662.00 L417.86 688.00 M510.71 662.00 L510.71 688.00 M603.57 662.00 L603.57 688.00 M696.43 662.00 L696.43 688.00 M789.29 662.00 L789.29 688.00 M882.14 662.00 L882.14 688.00 M975.00 662.00 L975.00 688.00 M1067.86 662.00 L1067.86 688.00 M1160.71 662.00 L1160.71 688.00 M1253.57 662.00 L1253.57 688.00 " style="fill:none;stroke:#000000;stroke-width:1;" /><text x="62.67857142857142" y="677.5" text-anchor="start" style="font:10px Droid Sans,Trebuchet MS,Arial,Helvetica,sans-serif;stroke:none;fill:#000000">0</text><text x="62.67857142857142" y="627.5" text-anchor="start" style="font:10px Droid Sans,Trebuchet MS,Arial,Helvetica,sans-serif;stroke:none;fill:#000000">20</text><text x="62.67857142857142" y="577.5" text-anchor="start" style="font:10px Droid Sans,Trebuchet MS,Arial,Helvetica,sans-serif;stroke:none;fill:#000000">40</text><text x="62.67857142857142" y="527.5" text-anchor="start" style="font:10px Droid Sans,Trebuchet MS,Arial,Helvetica,sans-serif;stroke:none;fill:#000000">60</text><text x="62.67857142857142" y="477.5" text-anchor="start" style="font:10px Droid Sans,Trebuchet MS,Arial,Helvetica,sans-serif;stroke:none;fill:#000000">80</text><text x="62.67857142857142" y="427.49999999999994" text-anchor="start" style="font:10px Droid Sans,Trebuchet MS,Arial,Helvetica,sans-serif;stroke:none;fill:#000000">100</text><text x="62.67857142857142" y="377.5" text-anchor="start" style="font:10px Droid Sans,Trebuchet MS,Arial,Helvetica,sans-serif;stroke:none;fill:#000000">120</text><text x="62.67857142857142" y="327.5" text-anchor="start" style="font:10px Droid Sans,Trebuchet MS,Arial,Helvetica,sans-serif;stroke:none;fill:#000000">140</text><text x="62.67857142857142" y="277.5" text-anchor="start" style="font:10px Droid Sans,Trebuchet MS,Arial,Helvetica,sans-serif;stroke:none;fill:#000000">160</text><text x="62.67857142857142" y="227.50000000000003" text-anchor="start" style="font:10px Droid Sans,Trebuchet MS,Arial,Helvetica,sans-serif;stroke:none;fill:#000000">180</text><text x="62.67857142857142" y="177.5" text-anchor="start" style="font:10px Droid Sans,Trebuchet MS,Arial,Helvetica,sans-serif;stroke:none;fill:#000000">200</text><text x="62.67857142857142" y="127.5" text-anchor="start" style="font:10px Droid Sans,Trebuchet MS,Arial,Helvetica,sans-serif;stroke:none;fill:#000000">220</text><text x="62.67857142857142" y="77.5" text-anchor="start" style="font:10px Droid Sans,Trebuchet MS,Arial,Helvetica,sans-serif;stroke:none;fill:#000000">240</text><text x="62.67857142857142" y="27.5" text-anchor="start" style="font:10px Droid Sans,Trebuchet MS,Arial,Helvetica,sans-serif;stroke:none;fill:#000000">260</text><text x="46.42857142857142" y="677.25" text-anchor="middle" style="font:10px Droid Sans,Trebuchet MS,Arial,Helvetica,sans-serif;stroke:none;fill:#000000">0</text><text x="139.28571428571428" y="677.25" text-anchor="middle" style="font:10px Droid Sans,Trebuchet MS,Arial,Helvetica,sans-serif;stroke:none;fill:#000000">20</text><text x="232.14285714285714" y="677.25" text-anchor="middle" style="font:10px Droid Sans,Trebuchet MS,Arial,Helvetica,sans-serif;stroke:none;fill:#000000">40</text><text x="325" y="677.25" text-anchor="middle" style="font:10px Droid Sans,Trebuchet MS,Arial,Helvetica,sans-serif;stroke:none;fill:#000000">60</text><text x="417.8571428571429" y="677.25" text-anchor="middle" style="font:10px Droid Sans,Trebuchet MS,Arial,Helvetica,sans-serif;stroke:none;fill:#000000">80</text><text x="510.7142857142857" y="677.25" text-anchor="middle" style="font:10px Droid Sans,Trebuchet MS,Arial,Helvetica,sans-serif;stroke:none;fill:#000000">100</text><text x="603.5714285714286" y="677.25" text-anchor="middle" style="font:10px Droid Sans,Trebuchet MS,Arial,Helvetica,sans-serif;stroke:none;fill:#000000">120</text><text x="696.4285714285714" y="677.25" text-anchor="middle" style="font:10px Droid Sans,Trebuchet MS,Arial,Helvetica,sans-serif;stroke:none;fill:#000000">140</text><text x="789.2857142857142" y="677.25" text-anchor="middle" style="font:10px Droid Sans,Trebuchet MS,Arial,Helvetica,sans-serif;stroke:none;fill:#000000">160</text><text x="882.1428571428572" y="677.25" text-anchor="middle" style="font:10px Droid Sans,Trebuchet MS,Arial,Helvetica,sans-serif;stroke:none;fill:#000000">180</text><text x="975" y="677.25" text-anchor="middle" style="font:10px Droid Sans,Trebuchet MS,Arial,Helvetica,sans-serif;stroke:none;fill:#000000">200</text><text x="1067.857142857143" y="677.25" text-anchor="middle" style="font:10px Droid Sans,Trebuchet MS,Arial,Helvetica,sans-serif;stroke:none;fill:#000000">220</text><text x="1160.7142857142858" y="677.25" text-anchor="middle" style="font:10px Droid Sans,Trebuchet MS,Arial,Helvetica,sans-serif;stroke:none;fill:#000000">240</text><text x="1253.5714285714287" y="677.25" text-anchor="middle" style="font:10px Droid Sans,Trebuchet MS,Arial,Helvetica,sans-serif;stroke:none;fill:#000000">260</text><path d="M-10.00 350.00 L-0.25 674.01 L0.75 674.05 L2.75 674.13 L4.75 674.21 L6.75 674.28 L8.75 674.35 L10.75 674.42 L12.75 674.48 L14.75 674.54 L16.75 674.60 L18.75 674.65 L20.75 674.70 L22.75 674.75 L24.75 674.79 L26.75 674.82 L28.75 674.86 L30.75 674.89 L32.75 674.91 L34.75 674.94 L36.75 674.96 L38.75 674.97 L40.75 674.99 L42.75 674.99 L44.75 675.00 L46.75 675.00 L48.75 675.00 L50.75 674.99 L52.75 674.98 L54.75 674.97 L56.75 674.95 L58.75 674.93 L60.75 674.91 L62.75 674.88 L64.75 674.85 L66.75 674.81 L68.75 674.77 L70.75 674.73 L72.75 674.68 L74.75 674.64 L76.75 674.58 L78.75 674.52 L80.75 674.46 L82.75 674.40 L84.75 674.33 L86.75 674.26 L88.75 674.19 L90.75 674.11 L92.75 674.02 L94.75 673.94 L96.75 673.85 L98.75 673.75 L100.75 673.66 L102.75 673.56 L104.75 673.45 L106.75 673.35 L108.75 673.23 L110.75 673.12 L112.75 673.00 L114.75 672.88 L116.75 672.75 L118.75 672.62 L120.75 672.49 L122.75 672.35 L124.75 672.21 L126.75 672.07 L128.75 671.92 L130.75 671.77 L132.75 671.61 L134.75 671.45 L136.75 671.29 L138.75 671.12 L140.75 670.95 L142.75 670.78 L144.75 670.60 L146.75 670.42 L148.75 670.24 L150.75 670.05 L152.75 669.86 L154.75 669.66 L156.75 669.46 L158.75 669.26 L160.75 669.06 L162.75 668.85 L164.75 668.63 L166.75 668.42 L168.75 668.19 L170.75 667.97 L172.75 667.74 L174.75 667.51 L176.75 667.28 L178.75 667.04 L180.75 666.79 L182.75 666.55 L184.75 666.30 L186.75 666.04 L188.75 665.79 L190.75 665.53 L192.75 665.26 L194.75 664.99 L196.75 664.72 L198.75 664.45 L200.75 664.17 L202.75 663.89 L204.75 663.60 L206.75 663.31 L208.75 663.02 L210.75 662.72 L212.75 662.42 L214.75 662.11 L216.75 661.81 L218.75 661.49 L220.75 661.18 L222.75 660.86 L224.75 660.54 L226.75 660.21 L228.75 659.88 L230.75 659.55 L232.75 659.21 L234.75 658.87 L236.75 658.53 L238.75 658.18 L240.75 657.83 L242.75 657.47 L244.75 657.11 L246.75 656.75 L248.75 656.38 L250.75 656.01 L252.75 655.64 L254.75 655.26 L256.75 654.88 L258.75 654.50 L260.75 654.11 L262.75 653.72 L264.75 653.32 L266.75 652.92 L268.75 652.52 L270.75 652.11 L272.75 651.70 L274.75 651.29 L276.75 650.87 L278.75 650.45 L280.75 650.03 L282.75 649.60 L284.75 649.17 L286.75 648.73 L288.75 648.29 L290.75 647.85 L292.75 647.40 L294.75 646.95 L296.75 646.50 L298.75 646.04 L300.75 645.58 L302.75 645.12 L304.75 644.65 L306.75 644.18 L308.75 643.70 L310.75 643.22 L312.75 642.74 L314.75 642.26 L316.75 641.77 L318.75 641.27 L320.75 640.77 L322.75 640.27 L324.75 639.77 L326.75 639.26 L328.75 638.75 L330.75 638.23 L332.75 637.71 L334.75 637.19 L336.75 636.67 L338.75 636.14 L340.75 635.60 L342.75 635.06 L344.75 634.52 L346.75 633.98 L348.75 633.43 L350.75 632.88 L352.75 632.32 L354.75 631.76 L356.75 631.20 L358.75 630.64 L360.75 630.07 L362.75 629.49 L364.75 628.91 L366.75 628.33 L368.75 627.75 L370.75 627.16 L372.75 626.57 L374.75 625.97 L376.75 625.37 L378.75 624.77 L380.75 624.17 L382.75 623.56 L384.75 622.94 L386.75 622.32 L388.75 621.70 L390.75 621.08 L392.75 620.45 L394.75 619.82 L396.75 619.18 L398.75 618.54 L400.75 617.90 L402.75 617.26 L404.75 616.61 L406.75 615.95 L408.75 615.29 L410.75 614.63 L412.75 613.97 L414.75 613.30 L416.75 612.63 L418.75 611.95 L420.75 611.27 L422.75 610.59 L424.75 609.90 L426.75 609.21 L428.75 608.52 L430.75 607.82 L432.75 607.12 L434.75 606.42 L436.75 605.71 L438.75 605.00 L440.75 604.28 L442.75 603.56 L444.75 602.84 L446.75 602.11 L448.75 601.38 L450.75 600.65 L452.75 599.91 L454.75 599.17 L456.75 598.43 L458.75 597.68 L460.75 596.93 L462.75 596.17 L464.75 595.41 L466.75 594.65 L468.75 593.88 L470.75 593.11 L472.75 592.34 L474.75 591.56 L476.75 590.78 L478.75 590.00 L480.75 589.21 L482.75 588.41 L484.75 587.62 L486.75 586.82 L488.75 586.02 L490.75 585.21 L492.75 584.40 L494.75 583.59 L496.75 582.77 L498.75 581.95 L500.75 581.12 L502.75 580.30 L504.75 579.46 L506.75 578.63 L508.75 577.79 L510.75 576.95 L512.75 576.10 L514.75 575.25 L516.75 574.40 L518.75 573.54 L520.75 572.68 L522.75 571.81 L524.75 570.94 L526.75 570.07 L528.75 569.20 L530.75 568.32 L532.75 567.43 L534.75 566.55 L536.75 565.66 L538.75 564.76 L540.75 563.87 L542.75 562.96 L544.75 562.06 L546.75 561.15 L548.75 560.24 L550.75 559.32 L552.75 558.40 L554.75 557.48 L556.75 556.55 L558.75 555.62 L560.75 554.69 L562.75 553.75 L564.75 552.81 L566.75 551.87 L568.75 550.92 L570.75 549.97 L572.75 549.01 L574.75 548.05 L576.75 547.09 L578.75 546.12 L580.75 545.15 L582.75 544.18 L584.75 543.20 L586.75 542.22 L588.75 541.23 L590.75 540.25 L592.75 539.25 L594.75 538.26 L596.75 537.26 L598.75 536.26 L600.74 535.25 L602.73 534.25 L604.71 533.25 L606.68 532.24 L608.65 531.24 L610.61 530.23 L612.56 529.23 L614.51 528.23 L616.44 527.22 L618.38 526.22 L620.30 525.22 L622.22 524.21 L624.13 523.21 L626.04 522.21 L627.94 521.20 L629.83 520.20 L631.72 519.20 L633.60 518.19 L635.48 517.19 L637.35 516.19 L639.21 515.19 L641.07 514.18 L642.92 513.18 L644.76 512.18 L646.60 511.17 L648.44 510.17 L650.27 509.17 L652.09 508.16 L653.91 507.16 L655.72 506.16 L657.53 505.15 L659.33 504.15 L661.13 503.15 L662.92 502.15 L664.70 501.14 L666.48 500.14 L668.26 499.14 L670.03 498.13 L671.80 497.13 L673.56 496.13 L675.31 495.13 L677.06 494.12 L678.81 493.12 L680.55 492.12 L682.28 491.11 L684.02 490.11 L685.74 489.11 L687.46 488.11 L689.18 487.10 L690.89 486.10 L692.60 485.10 L694.31 484.10 L696.01 483.09 L697.70 482.09 L699.39 481.09 L701.08 480.09 L702.76 479.08 L704.43 478.08 L706.11 477.08 L707.78 476.08 L709.44 475.07 L711.10 474.07 L712.76 473.07 L714.41 472.07 L716.06 471.06 L717.70 470.06 L719.34 469.06 L720.98 468.06 L722.61 467.05 L724.24 466.05 L725.86 465.05 L727.48 464.05 L729.10 463.04 L730.71 462.04 L732.32 461.04 L733.92 460.04 L735.52 459.03 L737.12 458.03 L738.71 457.03 L740.30 456.03 L741.89 455.02 L743.47 454.02 L745.05 453.02 L746.63 452.02 L748.20 451.02 L749.77 450.01 L751.33 449.01 L752.89 448.01 L754.45 447.01 L756.00 446.00 L757.56 445.00 L759.10 444.00 L760.65 443.00 L762.19 442.00 L763.73 440.99 L765.26 439.99 L766.79 438.99 L768.32 437.99 L769.84 436.99 L771.36 435.98 L772.88 434.98 L774.40 433.98 L775.91 432.98 L777.42 431.97 L778.92 430.97 L780.43 429.97 L781.93 428.97 L783.42 427.97 L784.91 426.96 L786.40 425.96 L787.89 424.96 L789.38 423.96 L790.86 422.96 L792.34 421.95 L793.81 420.95 L795.28 419.95 L796.75 418.95 L798.22 417.95 L799.68 416.94 L801.14 415.94 L802.60 414.94 L804.06 413.94 L805.51 412.94 L806.96 411.94 L808.41 410.93 L809.85 409.93 L811.29 408.93 L812.73 407.93 L814.17 406.93 L815.60 405.92 L817.03 404.92 L818.46 403.92 L819.88 402.92 L821.31 401.92 L822.73 400.91 L824.14 399.91 L825.56 398.91 L826.97 397.91 L828.38 396.91 L829.79 395.91 L831.19 394.90 L832.59 393.90 L833.99 392.90 L835.39 391.90 L836.79 390.90 L838.18 389.89 L839.57 388.89 L840.96 387.89 L842.34 386.89 L843.72 385.89 L845.10 384.89 L846.48 383.88 L847.86 382.88 L849.23 381.88 L850.60 380.88 L851.97 379.88 L853.33 378.88 L854.70 377.87 L856.06 376.87 L857.42 375.87 L858.77 374.87 L860.13 373.87 L861.48 372.87 L862.83 371.86 L864.18 370.86 L865.52 369.86 L866.87 368.86 L868.21 367.86 L869.55 366.86 L870.88 365.85 L872.22 364.85 L873.55 363.85 L874.88 362.85 L876.21 361.85 L877.53 360.85 L878.86 359.84 L880.18 358.84 L881.50 357.84 L882.82 356.84 L884.13 355.84 L885.45 354.84 L886.76 353.84 L888.07 352.83 L889.37 351.83 L890.68 350.83 L891.98 349.83 L893.28 348.83 L894.58 347.83 L895.88 346.82 L897.18 345.82 L898.47 344.82 L899.76 343.82 L901.05 342.82 L902.34 341.82 L903.62 340.82 L904.91 339.81 L906.19 338.81 L907.47 337.81 L908.74 336.81 L910.02 335.81 L911.29 334.81 L912.57 333.80 L913.84 332.80 L915.10 331.80 L916.37 330.80 L917.64 329.80 L918.90 328.80 L920.16 327.80 L921.42 326.79 L922.68 325.79 L923.93 324.79 L925.19 323.79 L926.44 322.79 L927.69 321.79 L928.94 320.79 L930.18 319.78 L931.43 318.78 L932.67 317.78 L933.91 316.78 L935.15 315.78 L936.39 314.78 L937.63 313.78 L938.86 312.77 L940.09 311.77 L941.32 310.77 L942.55 309.77 L943.78 308.77 L945.01 307.77 L946.23 306.77 L947.45 305.77 L948.67 304.76 L949.89 303.76 L951.11 302.76 L952.33 301.76 L953.54 300.76 L954.75 299.76 L955.97 298.76 L957.18 297.75 L958.38 296.75 L959.59 295.75 L960.79 294.75 L962.00 293.75 L963.20 292.75 L964.40 291.75 L965.60 290.75 L966.79 289.74 L967.99 288.74 L969.18 287.74 L970.37 286.74 L971.57 285.74 L972.75 284.74 L973.94 283.74 L975.13 282.73 L976.31 281.73 L977.50 280.73 L978.68 279.73 L979.86 278.73 L981.04 277.73 L982.21 276.73 L983.39 275.73 L984.56 274.72 L985.73 273.72 L986.91 272.72 L988.08 271.72 L989.24 270.72 L990.41 269.72 L991.58 268.72 L992.74 267.72 L993.90 266.71 L995.06 265.71 L996.22 264.71 L997.38 263.71 L998.54 262.71 L999.69 261.71 L1000.85 260.71 L1002.00 259.71 L1003.15 258.71 L1004.30 257.70 L1005.45 256.70 L1006.60 255.70 L1007.74 254.70 L1008.89 253.70 L1010.03 252.70 L1011.17 251.70 L1012.31 250.70 L1013.45 249.69 L1014.59 248.69 L1015.72 247.69 L1016.86 246.69 L1017.99 245.69 L1019.12 244.69 L1020.25 243.69 L1021.38 242.69 L1022.51 241.69 L1023.64 240.68 L1024.77 239.68 L1025.89 238.68 L1027.01 237.68 L1028.13 236.68 L1029.26 235.68 L1030.37 234.68 L1031.49 233.68 L1032.61 232.67 L1033.72 231.67 L1034.84 230.67 L1035.95 229.67 L1037.06 228.67 L1038.17 227.67 L1039.28 226.67 L1040.39 225.67 L1041.50 224.67 L1042.60 223.66 L1043.71 222.66 L1044.81 221.66 L1045.91 220.66 L1047.01 219.66 L1048.11 218.66 L1049.21 217.66 L1050.31 216.66 L1051.40 215.66 L1052.50 214.65 L1053.59 213.65 L1054.68 212.65 L1055.77 211.65 L1056.86 210.65 L1057.95 209.65 L1059.04 208.65 L1060.12 207.65 L1061.21 206.65 L1062.29 205.64 L1063.38 204.64 L1064.46 203.64 L1065.54 202.64 L1066.62 201.64 L1067.70 200.64 L1068.77 199.64 L1069.85 198.64 L1070.92 197.64 L1072.00 196.64 L1073.07 195.63 L1074.14 194.63 L1075.21 193.63 L1076.28 192.63 L1077.35 191.63 L1078.42 190.63 L1079.48 189.63 L1080.55 188.63 L1081.61 187.63 L1082.67 186.63 L1083.73 185.62 L1084.79 184.62 L1085.85 183.62 L1086.91 182.62 L1087.97 181.62 L1089.03 180.62 L1090.08 179.62 L1091.13 178.62 L1092.19 177.62 L1093.24 176.61 L1094.29 175.61 L1095.34 174.61 L1096.39 173.61 L1097.44 172.61 L1098.48 171.61 L1099.53 170.61 L1100.57 169.61 L1101.62 168.61 L1102.66 167.61 L1103.70 166.60 L1104.74 165.60 L1105.78 164.60 L1106.82 163.60 L1107.85 162.60 L1108.89 161.60 L1109.93 160.60 L1110.96 159.60 L1111.99 158.60 L1113.03 157.60 L1114.06 156.60 L1115.09 155.59 L1116.12 154.59 L1117.14 153.59 L1118.17 152.59 L1119.20 151.59 L1120.22 150.59 L1121.25 149.59 L1122.27 148.59 L1123.29 147.59 L1124.31 146.59 L1125.33 145.58 L1126.35 144.58 L1127.37 143.58 L1128.39 142.58 L1129.41 141.58 L1130.42 140.58 L1131.44 139.58 L1132.45 138.58 L1133.46 137.58 L1134.48 136.58 L1135.49 135.58 L1136.50 134.57 L1137.51 133.57 L1138.51 132.57 L1139.52 131.57 L1140.53 130.57 L1141.53 129.57 L1142.54 128.57 L1143.54 127.57 L1144.54 126.57 L1145.54 125.57 L1146.54 124.57 L1147.54 123.56 L1148.54 122.56 L1149.54 121.56 L1150.54 120.56 L1151.53 119.56 L1152.53 118.56 L1153.52 117.56 L1154.52 116.56 L1155.51 115.56 L1156.50 114.56 L1157.49 113.56 L1158.48 112.55 L1159.47 111.55 L1160.46 110.55 L1161.45 109.55 L1162.43 108.55 L1163.42 107.55 L1164.40 106.55 L1165.39 105.55 L1166.37 104.55 L1167.35 103.55 L1168.33 102.55 L1169.31 101.54 L1170.29 100.54 L1171.27 99.54 L1172.25 98.54 L1173.23 97.54 L1174.20 96.54 L1175.18 95.54 L1176.15 94.54 L1177.13 93.54 L1178.10 92.54 L1179.07 91.54 L1180.04 90.54 L1181.01 89.53 L1181.98 88.53 L1182.95 87.53 L1183.92 86.53 L1184.88 85.53 L1185.85 84.53 L1186.82 83.53 L1187.78 82.53 L1188.74 81.53 L1189.71 80.53 L1190.67 79.53 L1191.63 78.52 L1192.59 77.52 L1193.55 76.52 L1194.51 75.52 L1195.47 74.52 L1196.42 73.52 L1197.38 72.52 L1198.33 71.52 L1199.29 70.52 L1200.24 69.52 L1201.20 68.52 L1202.15 67.52 L1203.10 66.51 L1204.05 65.51 L1205.00 64.51 L1205.95 63.51 L1206.90 62.51 L1207.85 61.51 L1208.79 60.51 L1209.74 59.51 L1210.69 58.51 L1211.63 57.51 L1212.57 56.51 L1213.52 55.51 L1214.46 54.51 L1215.40 53.50 L1216.34 52.50 L1217.28 51.50 L1218.22 50.50 L1219.16 49.50 L1220.10 48.50 L1221.04 47.50 L1221.97 46.50 L1222.91 45.50 L1223.84 44.50 L1224.78 43.50 L1225.71 42.50 L1226.64 41.49 L1227.57 40.49 L1228.50 39.49 L1229.44 38.49 L1230.36 37.49 L1231.29 36.49 L1232.22 35.49 L1233.15 34.49 L1234.08 33.49 L1235.00 32.49 L1235.93 31.49 L1236.85 30.49 L1237.78 29.49 L1238.70 28.48 L1239.62 27.48 L1240.54 26.48 L1241.46 25.48 L1242.38 24.48 L1243.30 23.48 L1244.22 22.48 L1245.14 21.48 L1246.06 20.48 L1246.98 19.48 L1247.89 18.48 L1248.81 17.48 L1249.72 16.48 L1250.64 15.47 L1251.55 14.47 L1252.46 13.47 L1253.37 12.47 L1254.28 11.47 L1255.20 10.47 L1256.10 9.47 L1257.01 8.47 L1257.92 7.47 L1258.83 6.47 L1259.74 5.47 L1260.64 4.47 L1261.55 3.47 L1262.45 2.46 L1263.36 1.46 L1264.26 0.46 L1265.17 -0.54 " style="fill:none;stroke:#FF0000;stroke-width:1;" /><path d="M-10.00 350.00 L-0.25 675.04 L0.75 675.04 L2.75 675.03 L4.75 675.03 L6.75 675.02 L8.75 675.02 L10.75 675.02 L12.75 675.01 L14.75 675.01 L16.75 675.01 L18.75 675.01 L20.75 675.01 L22.75 675.01 L24.75 675.00 L26.75 675.00 L28.75 675.00 L30.75 675.00 L32.75 675.00 L34.75 675.00 L36.75 675.00 L38.75 675.00 L40.75 675.00 L42.75 675.00 L44.75 675.00 L46.75 675.00 L48.75 675.00 L50.75 675.00 L52.75 675.00 L54.75 675.00 L56.75 675.00 L58.75 675.00 L60.75 675.00 L62.75 675.00 L64.75 675.00 L66.75 675.00 L68.75 675.00 L70.75 674.99 L72.75 674.99 L74.75 674.99 L76.75 674.99 L78.75 674.99 L80.75 674.98 L82.75 674.98 L84.75 674.98 L86.75 674.97 L88.75 674.97 L90.75 674.97 L92.75 674.96 L94.75 674.96 L96.75 674.95 L98.75 674.94 L100.75 674.94 L102.75 674.93 L104.75 674.92 L106.75 674.92 L108.75 674.91 L110.75 674.90 L112.75 674.89 L114.75 674.88 L116.75 674.87 L118.75 674.85 L120.75 674.84 L122.75 674.83 L124.75 674.82 L126.75 674.80 L128.75 674.79 L130.75 674.77 L132.75 674.75 L134.75 674.74 L136.75 674.72 L138.75 674.70 L140.75 674.68 L142.75 674.66 L144.75 674.63 L146.75 674.61 L148.75 674.59 L150.75 674.56 L152.75 674.54 L154.75 674.51 L156.75 674.48 L158.75 674.46 L160.75 674.43 L162.75 674.40 L164.75 674.36 L166.75 674.33 L168.75 674.30 L170.75 674.26 L172.75 674.23 L174.75 674.19 L176.75 674.15 L178.75 674.11 L180.75 674.07 L182.75 674.03 L184.75 673.98 L186.75 673.94 L188.75 673.89 L190.75 673.85 L192.75 673.80 L194.75 673.75 L196.75 673.70 L198.75 673.64 L200.75 673.59 L202.75 673.53 L204.75 673.48 L206.75 673.42 L208.75 673.36 L210.75 673.30 L212.75 673.23 L214.75 673.17 L216.75 673.10 L218.75 673.03 L220.75 672.97 L222.75 672.89 L224.75 672.82 L226.75 672.75 L228.75 672.67 L230.75 672.59 L232.75 672.52 L234.75 672.43 L236.75 672.35 L238.75 672.27 L240.75 672.18 L242.75 672.09 L244.75 672.00 L246.75 671.91 L248.75 671.82 L250.75 671.72 L252.75 671.63 L254.75 671.53 L256.75 671.43 L258.75 671.32 L260.75 671.22 L262.75 671.11 L264.75 671.00 L266.75 670.89 L268.75 670.78 L270.75 670.66 L272.75 670.55 L274.75 670.43 L276.75 670.31 L278.75 670.18 L280.75 670.06 L282.75 669.93 L284.75 669.80 L286.75 669.67 L288.75 669.53 L290.75 669.40 L292.75 669.26 L294.75 669.12 L296.75 668.97 L298.75 668.83 L300.75 668.68 L302.75 668.53 L304.75 668.38 L306.75 668.22 L308.75 668.07 L310.75 667.91 L312.75 667.74 L314.75 667.58 L316.75 667.41 L318.75 667.24 L320.75 667.07 L322.75 666.90 L324.75 666.72 L326.75 666.54 L328.75 666.36 L330.75 666.17 L332.75 665.98 L334.75 665.79 L336.75 665.60 L338.75 665.40 L340.75 665.21 L342.75 665.00 L344.75 664.80 L346.75 664.59 L348.75 664.39 L350.75 664.17 L352.75 663.96 L354.75 663.74 L356.75 663.52 L358.75 663.30 L360.75 663.07 L362.75 662.84 L364.75 662.61 L366.75 662.37 L368.75 662.14 L370.75 661.90 L372.75 661.65 L374.75 661.40 L376.75 661.15 L378.75 660.90 L380.75 660.65 L382.75 660.39 L384.75 660.12 L386.75 659.86 L388.75 659.59 L390.75 659.32 L392.75 659.04 L394.75 658.77 L396.75 658.48 L398.75 658.20 L400.75 657.91 L402.75 657.62 L404.75 657.33 L406.75 657.03 L408.75 656.73 L410.75 656.42 L412.75 656.12 L414.75 655.81 L416.75 655.49 L418.75 655.17 L420.75 654.85 L422.75 654.53 L424.75 654.20 L426.75 653.87 L428.75 653.53 L430.75 653.19 L432.75 652.85 L434.75 652.51 L436.75 652.16 L438.75 651.80 L440.75 651.45 L442.75 651.09 L444.75 650.72 L446.75 650.35 L448.75 649.98 L450.75 649.61 L452.75 649.23 L454.75 648.85 L456.75 648.46 L458.75 648.07 L460.75 647.68 L462.75 647.28 L464.75 646.88 L466.75 646.47 L468.75 646.06 L470.75 645.65 L472.75 645.23 L474.75 644.81 L476.75 644.39 L478.75 643.96 L480.75 643.53 L482.75 643.09 L484.75 642.65 L486.75 642.20 L488.75 641.76 L490.75 641.30 L492.75 640.85 L494.75 640.38 L496.75 639.92 L498.75 639.45 L500.75 638.98 L502.75 638.50 L504.75 638.02 L506.75 637.53 L508.75 637.04 L510.75 636.54 L512.75 636.05 L514.75 635.54 L516.75 635.03 L518.75 634.52 L520.75 634.01 L522.75 633.49 L524.75 632.96 L526.75 632.43 L528.75 631.90 L530.75 631.36 L532.75 630.82 L534.75 630.27 L536.75 629.72 L538.75 629.16 L540.75 628.60 L542.75 628.03 L544.75 627.46 L546.75 626.89 L548.75 626.31 L550.75 625.73 L552.75 625.14 L554.75 624.54 L556.75 623.95 L558.75 623.34 L560.75 622.74 L562.75 622.12 L564.75 621.51 L566.75 620.88 L568.75 620.26 L570.75 619.63 L572.75 618.99 L574.75 618.35 L576.75 617.70 L578.75 617.05 L580.75 616.40 L582.75 615.74 L584.75 615.07 L586.75 614.40 L588.75 613.73 L590.75 613.05 L592.75 612.36 L594.75 611.67 L596.75 610.97 L598.75 610.27 L600.75 609.57 L602.75 608.86 L604.75 608.14 L606.75 607.42 L608.75 606.69 L610.75 605.96 L612.75 605.23 L614.75 604.48 L616.75 603.74 L618.75 602.98 L620.75 602.23 L622.75 601.46 L624.75 600.70 L626.75 599.92 L628.75 599.14 L630.75 598.36 L632.75 597.57 L634.75 596.77 L636.75 595.97 L638.75 595.17 L640.75 594.36 L642.75 593.54 L644.75 592.72 L646.75 591.89 L648.75 591.06 L650.75 590.22 L652.75 589.37 L654.75 588.52 L656.75 587.67 L658.75 586.81 L660.75 585.94 L662.75 585.07 L664.75 584.19 L666.75 583.30 L668.75 582.41 L670.75 581.52 L672.75 580.62 L674.75 579.71 L676.75 578.80 L678.75 577.88 L680.75 576.95 L682.75 576.02 L684.75 575.09 L686.75 574.14 L688.75 573.20 L690.75 572.24 L692.75 571.28 L694.75 570.32 L696.75 569.35 L698.75 568.37 L700.75 567.38 L702.75 566.39 L704.75 565.40 L706.75 564.40 L708.75 563.39 L710.73 562.38 L712.70 561.38 L714.66 560.37 L716.61 559.37 L718.55 558.36 L720.48 557.35 L722.39 556.35 L724.30 555.34 L726.19 554.34 L728.07 553.33 L729.94 552.33 L731.81 551.32 L733.66 550.32 L735.50 549.31 L737.33 548.30 L739.16 547.30 L740.97 546.29 L742.77 545.29 L744.57 544.28 L746.35 543.28 L748.13 542.27 L749.89 541.27 L751.65 540.26 L753.40 539.26 L755.14 538.25 L756.87 537.25 L758.60 536.24 L760.31 535.24 L762.02 534.23 L763.72 533.23 L765.41 532.22 L767.09 531.22 L768.77 530.22 L770.43 529.21 L772.09 528.21 L773.74 527.20 L775.39 526.20 L777.02 525.19 L778.65 524.19 L780.27 523.18 L781.89 522.18 L783.50 521.17 L785.10 520.17 L786.69 519.17 L788.28 518.16 L789.86 517.16 L791.43 516.15 L793.00 515.15 L794.56 514.14 L796.11 513.14 L797.66 512.14 L799.20 511.13 L800.73 510.13 L802.26 509.12 L803.78 508.12 L805.30 507.12 L806.81 506.11 L808.31 505.11 L809.81 504.10 L811.30 503.10 L812.79 502.10 L814.27 501.09 L815.74 500.09 L817.21 499.08 L818.68 498.08 L820.13 497.08 L821.59 496.07 L823.03 495.07 L824.47 494.07 L825.91 493.06 L827.34 492.06 L828.77 491.05 L830.19 490.05 L831.60 489.05 L833.01 488.04 L834.42 487.04 L835.82 486.04 L837.21 485.03 L838.60 484.03 L839.99 483.03 L841.37 482.02 L842.74 481.02 L844.11 480.02 L845.48 479.01 L846.84 478.01 L848.20 477.01 L849.55 476.00 L850.90 475.00 L852.24 474.00 L853.58 472.99 L854.91 471.99 L856.24 470.99 L857.57 469.98 L858.89 468.98 L860.21 467.98 L861.52 466.97 L862.83 465.97 L864.13 464.97 L865.43 463.96 L866.73 462.96 L868.02 461.96 L869.31 460.95 L870.59 459.95 L871.87 458.95 L873.14 457.94 L874.42 456.94 L875.68 455.94 L876.95 454.93 L878.21 453.93 L879.46 452.93 L880.71 451.93 L881.96 450.92 L883.21 449.92 L884.45 448.92 L885.69 447.91 L886.92 446.91 L888.15 445.91 L889.38 444.91 L890.60 443.90 L891.82 442.90 L893.04 441.90 L894.25 440.89 L895.46 439.89 L896.66 438.89 L897.86 437.89 L899.06 436.88 L900.26 435.88 L901.45 434.88 L902.64 433.87 L903.82 432.87 L905.01 431.87 L906.18 430.87 L907.36 429.86 L908.53 428.86 L909.70 427.86 L910.87 426.85 L912.03 425.85 L913.19 424.85 L914.35 423.85 L915.50 422.84 L916.65 421.84 L917.80 420.84 L918.94 419.84 L920.08 418.83 L921.22 417.83 L922.36 416.83 L923.49 415.83 L924.62 414.82 L925.75 413.82 L926.87 412.82 L927.99 411.82 L929.11 410.81 L930.22 409.81 L931.33 408.81 L932.44 407.81 L933.55 406.80 L934.66 405.80 L935.76 404.80 L936.85 403.80 L937.95 402.79 L939.04 401.79 L940.13 400.79 L941.22 399.79 L942.31 398.78 L943.39 397.78 L944.47 396.78 L945.55 395.78 L946.62 394.77 L947.69 393.77 L948.76 392.77 L949.83 391.77 L950.89 390.76 L951.96 389.76 L953.02 388.76 L954.07 387.76 L955.13 386.75 L956.18 385.75 L957.23 384.75 L958.28 383.75 L959.32 382.75 L960.36 381.74 L961.40 380.74 L962.44 379.74 L963.48 378.74 L964.51 377.73 L965.54 376.73 L966.57 375.73 L967.59 374.73 L968.62 373.72 L969.64 372.72 L970.66 371.72 L971.67 370.72 L972.69 369.72 L973.70 368.71 L974.71 367.71 L975.72 366.71 L976.73 365.71 L977.73 364.71 L978.73 363.70 L979.73 362.70 L980.73 361.70 L981.72 360.70 L982.72 359.69 L983.71 358.69 L984.70 357.69 L985.68 356.69 L986.67 355.69 L987.65 354.68 L988.63 353.68 L989.61 352.68 L990.59 351.68 L991.56 350.68 L992.53 349.67 L993.50 348.67 L994.47 347.67 L995.44 346.67 L996.40 345.67 L997.36 344.66 L998.32 343.66 L999.28 342.66 L1000.24 341.66 L1001.19 340.66 L1002.15 339.65 L1003.10 338.65 L1004.05 337.65 L1004.99 336.65 L1005.94 335.65 L1006.88 334.64 L1007.82 333.64 L1008.76 332.64 L1009.70 331.64 L1010.64 330.64 L1011.57 329.63 L1012.51 328.63 L1013.44 327.63 L1014.36 326.63 L1015.29 325.63 L1016.22 324.62 L1017.14 323.62 L1018.06 322.62 L1018.98 321.62 L1019.90 320.62 L1020.82 319.61 L1021.73 318.61 L1022.64 317.61 L1023.56 316.61 L1024.47 315.61 L1025.37 314.61 L1026.28 313.60 L1027.18 312.60 L1028.09 311.60 L1028.99 310.60 L1029.89 309.60 L1030.79 308.59 L1031.68 307.59 L1032.58 306.59 L1033.47 305.59 L1034.36 304.59 L1035.25 303.58 L1036.14 302.58 L1037.03 301.58 L1037.91 300.58 L1038.80 299.58 L1039.68 298.58 L1040.56 297.57 L1041.44 296.57 L1042.31 295.57 L1043.19 294.57 L1044.06 293.57 L1044.94 292.57 L1045.81 291.56 L1046.68 290.56 L1047.54 289.56 L1048.41 288.56 L1049.28 287.56 L1050.14 286.56 L1051.00 285.55 L1051.86 284.55 L1052.72 283.55 L1053.58 282.55 L1054.43 281.55 L1055.29 280.54 L1056.14 279.54 L1056.99 278.54 L1057.85 277.54 L1058.69 276.54 L1059.54 275.54 L1060.39 274.53 L1061.23 273.53 L1062.08 272.53 L1062.92 271.53 L1063.76 270.53 L1064.60 269.53 L1065.43 268.52 L1066.27 267.52 L1067.11 266.52 L1067.94 265.52 L1068.77 264.52 L1069.60 263.52 L1070.43 262.51 L1071.26 261.51 L1072.09 260.51 L1072.91 259.51 L1073.74 258.51 L1074.56 257.51 L1075.38 256.51 L1076.20 255.50 L1077.02 254.50 L1077.84 253.50 L1078.65 252.50 L1079.47 251.50 L1080.28 250.50 L1081.10 249.49 L1081.91 248.49 L1082.72 247.49 L1083.53 246.49 L1084.33 245.49 L1085.14 244.49 L1085.94 243.48 L1086.75 242.48 L1087.55 241.48 L1088.35 240.48 L1089.15 239.48 L1089.95 238.48 L1090.75 237.48 L1091.54 236.47 L1092.34 235.47 L1093.13 234.47 L1093.92 233.47 L1094.72 232.47 L1095.51 231.47 L1096.30 230.46 L1097.08 229.46 L1097.87 228.46 L1098.66 227.46 L1099.44 226.46 L1100.22 225.46 L1101.00 224.46 L1101.79 223.45 L1102.56 222.45 L1103.34 221.45 L1104.12 220.45 L1104.90 219.45 L1105.67 218.45 L1106.45 217.45 L1107.22 216.44 L1107.99 215.44 L1108.76 214.44 L1109.53 213.44 L1110.30 212.44 L1111.07 211.44 L1111.83 210.44 L1112.60 209.43 L1113.36 208.43 L1114.12 207.43 L1114.89 206.43 L1115.65 205.43 L1116.41 204.43 L1117.16 203.43 L1117.92 202.42 L1118.68 201.42 L1119.43 200.42 L1120.19 199.42 L1120.94 198.42 L1121.69 197.42 L1122.44 196.42 L1123.19 195.41 L1123.94 194.41 L1124.69 193.41 L1125.44 192.41 L1126.18 191.41 L1126.93 190.41 L1127.67 189.41 L1128.41 188.40 L1129.16 187.40 L1129.90 186.40 L1130.64 185.40 L1131.37 184.40 L1132.11 183.40 L1132.85 182.40 L1133.58 181.40 L1134.32 180.39 L1135.05 179.39 L1135.79 178.39 L1136.52 177.39 L1137.25 176.39 L1137.98 175.39 L1138.71 174.39 L1139.43 173.38 L1140.16 172.38 L1140.89 171.38 L1141.61 170.38 L1142.34 169.38 L1143.06 168.38 L1143.78 167.38 L1144.50 166.37 L1145.22 165.37 L1145.94 164.37 L1146.66 163.37 L1147.38 162.37 L1148.09 161.37 L1148.81 160.37 L1149.52 159.37 L1150.24 158.36 L1150.95 157.36 L1151.66 156.36 L1152.37 155.36 L1153.08 154.36 L1153.79 153.36 L1154.50 152.36 L1155.21 151.36 L1155.91 150.35 L1156.62 149.35 L1157.32 148.35 L1158.03 147.35 L1158.73 146.35 L1159.43 145.35 L1160.13 144.35 L1160.83 143.35 L1161.53 142.34 L1162.23 141.34 L1162.93 140.34 L1163.62 139.34 L1164.32 138.34 L1165.01 137.34 L1165.71 136.34 L1166.40 135.34 L1167.09 134.33 L1167.78 133.33 L1168.47 132.33 L1169.16 131.33 L1169.85 130.33 L1170.54 129.33 L1171.23 128.33 L1171.91 127.33 L1172.60 126.32 L1173.28 125.32 L1173.97 124.32 L1174.65 123.32 L1175.33 122.32 L1176.01 121.32 L1176.69 120.32 L1177.37 119.32 L1178.05 118.31 L1178.73 117.31 L1179.41 116.31 L1180.08 115.31 L1180.76 114.31 L1181.43 113.31 L1182.11 112.31 L1182.78 111.31 L1183.45 110.31 L1184.13 109.30 L1184.80 108.30 L1185.47 107.30 L1186.14 106.30 L1186.80 105.30 L1187.47 104.30 L1188.14 103.30 L1188.80 102.30 L1189.47 101.29 L1190.13 100.29 L1190.80 99.29 L1191.46 98.29 L1192.12 97.29 L1192.78 96.29 L1193.44 95.29 L1194.10 94.29 L1194.76 93.29 L1195.42 92.28 L1196.08 91.28 L1196.74 90.28 L1197.39 89.28 L1198.05 88.28 L1198.70 87.28 L1199.36 86.28 L1200.01 85.28 L1200.66 84.28 L1201.31 83.27 L1201.97 82.27 L1202.62 81.27 L1203.26 80.27 L1203.91 79.27 L1204.56 78.27 L1205.21 77.27 L1205.86 76.27 L1206.50 75.26 L1207.15 74.26 L1207.79 73.26 L1208.43 72.26 L1209.08 71.26 L1209.72 70.26 L1210.36 69.26 L1211.00 68.26 L1211.64 67.26 L1212.28 66.26 L1212.92 65.25 L1213.56 64.25 L1214.20 63.25 L1214.83 62.25 L1215.47 61.25 L1216.10 60.25 L1216.74 59.25 L1217.37 58.25 L1218.01 57.25 L1218.64 56.24 L1219.27 55.24 L1219.90 54.24 L1220.53 53.24 L1221.16 52.24 L1221.79 51.24 L1222.42 50.24 L1223.05 49.24 L1223.67 48.24 L1224.30 47.23 L1224.93 46.23 L1225.55 45.23 L1226.18 44.23 L1226.80 43.23 L1227.42 42.23 L1228.04 41.23 L1228.67 40.23 L1229.29 39.23 L1229.91 38.22 L1230.53 37.22 L1231.15 36.22 L1231.77 35.22 L1232.38 34.22 L1233.00 33.22 L1233.62 32.22 L1234.23 31.22 L1234.85 30.22 L1235.46 29.22 L1236.08 28.21 L1236.69 27.21 L1237.30 26.21 L1237.92 25.21 L1238.53 24.21 L1239.14 23.21 L1239.75 22.21 L1240.36 21.21 L1240.97 20.21 L1241.58 19.21 L1242.18 18.20 L1242.79 17.20 L1243.40 16.20 L1244.00 15.20 L1244.61 14.20 L1245.21 13.20 L1245.82 12.20 L1246.42 11.20 L1247.02 10.20 L1247.63 9.20 L1248.23 8.19 L1248.83 7.19 L1249.43 6.19 L1250.03 5.19 L1250.63 4.19 L1251.23 3.19 L1251.83 2.19 L1252.42 1.19 L1253.02 0.19 L1253.62 -0.81 " style="fill:none;stroke:#1100FF;stroke-width:1;" /><path d="M-10.00 350.00 L-0.25 675.00 L0.75 675.00 L2.75 675.00 L4.75 675.00 L6.75 675.00 L8.75 675.00 L10.75 675.00 L12.75 675.00 L14.75 675.00 L16.75 675.00 L18.75 675.00 L20.75 675.00 L22.75 675.00 L24.75 675.00 L26.75 675.00 L28.75 675.00 L30.75 675.00 L32.75 675.00 L34.75 675.00 L36.75 675.00 L38.75 675.00 L40.75 675.00 L42.75 675.00 L44.75 675.00 L46.75 675.00 L48.75 675.00 L50.75 675.00 L52.75 675.00 L54.75 675.00 L56.75 675.00 L58.75 675.00 L60.75 675.00 L62.75 675.00 L64.75 675.00 L66.75 675.00 L68.75 675.00 L70.75 675.00 L72.75 675.00 L74.75 675.00 L76.75 675.00 L78.75 675.00 L80.75 675.00 L82.75 675.00 L84.75 675.00 L86.75 675.00 L88.75 675.00 L90.75 675.00 L92.75 675.00 L94.75 675.00 L96.75 675.00 L98.75 675.00 L100.75 675.00 L102.75 675.00 L104.75 675.00 L106.75 675.00 L108.75 675.00 L110.75 674.99 L112.75 674.99 L114.75 674.99 L116.75 674.99 L118.75 674.99 L120.75 674.99 L122.75 674.99 L124.75 674.99 L126.75 674.99 L128.75 674.99 L130.75 674.98 L132.75 674.98 L134.75 674.98 L136.75 674.98 L138.75 674.98 L140.75 674.97 L142.75 674.97 L144.75 674.97 L146.75 674.97 L148.75 674.96 L150.75 674.96 L152.75 674.96 L154.75 674.96 L156.75 674.95 L158.75 674.95 L160.75 674.94 L162.75 674.94 L164.75 674.94 L166.75 674.93 L168.75 674.93 L170.75 674.92 L172.75 674.92 L174.75 674.91 L176.75 674.91 L178.75 674.90 L180.75 674.89 L182.75 674.89 L184.75 674.88 L186.75 674.87 L188.75 674.87 L190.75 674.86 L192.75 674.85 L194.75 674.84 L196.75 674.83 L198.75 674.83 L200.75 674.82 L202.75 674.81 L204.75 674.80 L206.75 674.79 L208.75 674.77 L210.75 674.76 L212.75 674.75 L214.75 674.74 L216.75 674.73 L218.75 674.71 L220.75 674.70 L222.75 674.69 L224.75 674.67 L226.75 674.66 L228.75 674.64 L230.75 674.63 L232.75 674.61 L234.75 674.59 L236.75 674.57 L238.75 674.56 L240.75 674.54 L242.75 674.52 L244.75 674.50 L246.75 674.48 L248.75 674.46 L250.75 674.43 L252.75 674.41 L254.75 674.39 L256.75 674.37 L258.75 674.34 L260.75 674.32 L262.75 674.29 L264.75 674.26 L266.75 674.24 L268.75 674.21 L270.75 674.18 L272.75 674.15 L274.75 674.12 L276.75 674.09 L278.75 674.05 L280.75 674.02 L282.75 673.99 L284.75 673.95 L286.75 673.92 L288.75 673.88 L290.75 673.84 L292.75 673.81 L294.75 673.77 L296.75 673.73 L298.75 673.68 L300.75 673.64 L302.75 673.60 L304.75 673.56 L306.75 673.51 L308.75 673.46 L310.75 673.42 L312.75 673.37 L314.75 673.32 L316.75 673.27 L318.75 673.22 L320.75 673.16 L322.75 673.11 L324.75 673.05 L326.75 673.00 L328.75 672.94 L330.75 672.88 L332.75 672.82 L334.75 672.76 L336.75 672.69 L338.75 672.63 L340.75 672.57 L342.75 672.50 L344.75 672.43 L346.75 672.36 L348.75 672.29 L350.75 672.22 L352.75 672.14 L354.75 672.07 L356.75 671.99 L358.75 671.91 L360.75 671.83 L362.75 671.75 L364.75 671.67 L366.75 671.58 L368.75 671.50 L370.75 671.41 L372.75 671.32 L374.75 671.23 L376.75 671.14 L378.75 671.04 L380.75 670.95 L382.75 670.85 L384.75 670.75 L386.75 670.65 L388.75 670.54 L390.75 670.44 L392.75 670.33 L394.75 670.22 L396.75 670.11 L398.75 670.00 L400.75 669.89 L402.75 669.77 L404.75 669.65 L406.75 669.53 L408.75 669.41 L410.75 669.28 L412.75 669.16 L414.75 669.03 L416.75 668.90 L418.75 668.76 L420.75 668.63 L422.75 668.49 L424.75 668.35 L426.75 668.21 L428.75 668.07 L430.75 667.92 L432.75 667.77 L434.75 667.62 L436.75 667.47 L438.75 667.31 L440.75 667.16 L442.75 666.99 L444.75 666.83 L446.75 666.67 L448.75 666.50 L450.75 666.33 L452.75 666.16 L454.75 665.98 L456.75 665.80 L458.75 665.62 L460.75 665.44 L462.75 665.25 L464.75 665.06 L466.75 664.87 L468.75 664.68 L470.75 664.48 L472.75 664.28 L474.75 664.08 L476.75 663.87 L478.75 663.67 L480.75 663.45 L482.75 663.24 L484.75 663.02 L486.75 662.80 L488.75 662.58 L490.75 662.35 L492.75 662.12 L494.75 661.89 L496.75 661.66 L498.75 661.42 L500.75 661.18 L502.75 660.93 L504.75 660.68 L506.75 660.43 L508.75 660.18 L510.75 659.92 L512.75 659.66 L514.75 659.39 L516.75 659.12 L518.75 658.85 L520.75 658.58 L522.75 658.30 L524.75 658.02 L526.75 657.73 L528.75 657.44 L530.75 657.15 L532.75 656.85 L534.75 656.55 L536.75 656.25 L538.75 655.94 L540.75 655.63 L542.75 655.31 L544.75 654.99 L546.75 654.67 L548.75 654.34 L550.75 654.01 L552.75 653.68 L554.75 653.34 L556.75 652.99 L558.75 652.65 L560.75 652.30 L562.75 651.94 L564.75 651.58 L566.75 651.22 L568.75 650.85 L570.75 650.48 L572.75 650.10 L574.75 649.72 L576.75 649.34 L578.75 648.95 L580.75 648.55 L582.75 648.15 L584.75 647.75 L586.75 647.34 L588.75 646.93 L590.75 646.52 L592.75 646.10 L594.75 645.67 L596.75 645.24 L598.75 644.80 L600.75 644.36 L602.75 643.92 L604.75 643.47 L606.75 643.02 L608.75 642.56 L610.75 642.09 L612.75 641.62 L614.75 641.15 L616.75 640.67 L618.75 640.19 L620.75 639.70 L622.75 639.20 L624.75 638.70 L626.75 638.20 L628.75 637.69 L630.75 637.17 L632.75 636.65 L634.75 636.13 L636.75 635.60 L638.75 635.06 L640.75 634.52 L642.75 633.97 L644.75 633.42 L646.75 632.86 L648.75 632.29 L650.75 631.72 L652.75 631.15 L654.75 630.57 L656.75 629.98 L658.75 629.39 L660.75 628.79 L662.75 628.18 L664.75 627.57 L666.75 626.96 L668.75 626.33 L670.75 625.70 L672.75 625.07 L674.75 624.43 L676.75 623.78 L678.75 623.13 L680.75 622.47 L682.75 621.80 L684.75 621.13 L686.75 620.45 L688.75 619.77 L690.75 619.08 L692.75 618.38 L694.75 617.68 L696.75 616.96 L698.75 616.25 L700.75 615.52 L702.75 614.79 L704.75 614.06 L706.75 613.31 L708.75 612.56 L710.75 611.80 L712.75 611.04 L714.75 610.27 L716.75 609.49 L718.75 608.70 L720.75 607.91 L722.75 607.11 L724.75 606.31 L726.75 605.49 L728.75 604.67 L730.75 603.84 L732.75 603.01 L734.75 602.16 L736.75 601.31 L738.75 600.46 L740.75 599.59 L742.75 598.72 L744.75 597.84 L746.75 596.95 L748.75 596.06 L750.75 595.15 L752.75 594.24 L754.75 593.32 L756.75 592.40 L758.75 591.46 L760.75 590.52 L762.75 589.57 L764.75 588.61 L766.75 587.65 L768.75 586.67 L770.75 585.69 L772.75 584.70 L774.75 583.70 L776.75 582.69 L778.74 581.68 L780.71 580.68 L782.66 579.67 L784.60 578.66 L786.52 577.65 L788.43 576.64 L790.32 575.64 L792.20 574.63 L794.07 573.62 L795.92 572.61 L797.75 571.61 L799.58 570.60 L801.39 569.59 L803.18 568.59 L804.97 567.58 L806.74 566.57 L808.50 565.56 L810.25 564.56 L811.98 563.55 L813.70 562.54 L815.42 561.54 L817.12 560.53 L818.80 559.52 L820.48 558.52 L822.15 557.51 L823.80 556.50 L825.45 555.50 L827.09 554.49 L828.71 553.49 L830.32 552.48 L831.93 551.47 L833.52 550.47 L835.11 549.46 L836.68 548.45 L838.25 547.45 L839.81 546.44 L841.35 545.44 L842.89 544.43 L844.42 543.42 L845.94 542.42 L847.45 541.41 L848.96 540.41 L850.45 539.40 L851.94 538.40 L853.42 537.39 L854.89 536.39 L856.35 535.38 L857.80 534.37 L859.25 533.37 L860.69 532.36 L862.12 531.36 L863.54 530.35 L864.96 529.35 L866.37 528.34 L867.77 527.34 L869.16 526.33 L870.55 525.33 L871.93 524.32 L873.30 523.32 L874.67 522.31 L876.03 521.31 L877.38 520.30 L878.73 519.30 L880.07 518.29 L881.40 517.29 L882.73 516.28 L884.05 515.28 L885.36 514.27 L886.67 513.27 L887.97 512.26 L889.27 511.26 L890.56 510.26 L891.84 509.25 L893.12 508.25 L894.39 507.24 L895.66 506.24 L896.92 505.23 L898.17 504.23 L899.42 503.22 L900.67 502.22 L901.91 501.22 L903.14 500.21 L904.37 499.21 L905.59 498.20 L906.81 497.20 L908.02 496.19 L909.23 495.19 L910.43 494.19 L911.63 493.18 L912.82 492.18 L914.01 491.17 L915.19 490.17 L916.37 489.16 L917.54 488.16 L918.71 487.16 L919.87 486.15 L921.03 485.15 L922.18 484.14 L923.33 483.14 L924.48 482.14 L925.62 481.13 L926.75 480.13 L927.88 479.12 L929.01 478.12 L930.13 477.12 L931.25 476.11 L932.37 475.11 L933.48 474.11 L934.58 473.10 L935.68 472.10 L936.78 471.09 L937.88 470.09 L938.97 469.09 L940.05 468.08 L941.13 467.08 L942.21 466.08 L943.28 465.07 L944.35 464.07 L945.42 463.07 L946.48 462.06 L947.54 461.06 L948.60 460.05 L949.65 459.05 L950.70 458.05 L951.74 457.04 L952.78 456.04 L953.82 455.04 L954.85 454.03 L955.88 453.03 L956.90 452.03 L957.93 451.02 L958.95 450.02 L959.96 449.02 L960.97 448.01 L961.98 447.01 L962.99 446.01 L963.99 445.00 L964.99 444.00 L965.99 443.00 L966.98 441.99 L967.97 440.99 L968.95 439.99 L969.94 438.98 L970.92 437.98 L971.89 436.98 L972.87 435.97 L973.84 434.97 L974.80 433.97 L975.77 432.97 L976.73 431.96 L977.69 430.96 L978.64 429.96 L979.60 428.95 L980.55 427.95 L981.49 426.95 L982.44 425.94 L983.38 424.94 L984.32 423.94 L985.25 422.93 L986.18 421.93 L987.11 420.93 L988.04 419.93 L988.96 418.92 L989.89 417.92 L990.81 416.92 L991.72 415.91 L992.63 414.91 L993.55 413.91 L994.45 412.91 L995.36 411.90 L996.26 410.90 L997.16 409.90 L998.06 408.89 L998.96 407.89 L999.85 406.89 L1000.74 405.89 L1001.63 404.88 L1002.51 403.88 L1003.39 402.88 L1004.28 401.87 L1005.15 400.87 L1006.03 399.87 L1006.90 398.87 L1007.77 397.86 L1008.64 396.86 L1009.51 395.86 L1010.37 394.86 L1011.23 393.85 L1012.09 392.85 L1012.95 391.85 L1013.80 390.84 L1014.65 389.84 L1015.50 388.84 L1016.35 387.84 L1017.20 386.83 L1018.04 385.83 L1018.88 384.83 L1019.72 383.83 L1020.56 382.82 L1021.39 381.82 L1022.23 380.82 L1023.06 379.82 L1023.88 378.81 L1024.71 377.81 L1025.53 376.81 L1026.36 375.81 L1027.18 374.80 L1027.99 373.80 L1028.81 372.80 L1029.62 371.80 L1030.43 370.79 L1031.24 369.79 L1032.05 368.79 L1032.86 367.79 L1033.66 366.78 L1034.46 365.78 L1035.26 364.78 L1036.06 363.78 L1036.86 362.77 L1037.65 361.77 L1038.44 360.77 L1039.23 359.77 L1040.02 358.76 L1040.81 357.76 L1041.59 356.76 L1042.37 355.76 L1043.16 354.75 L1043.93 353.75 L1044.71 352.75 L1045.49 351.75 L1046.26 350.75 L1047.03 349.74 L1047.80 348.74 L1048.57 347.74 L1049.34 346.74 L1050.10 345.73 L1050.86 344.73 L1051.63 343.73 L1052.39 342.73 L1053.14 341.72 L1053.90 340.72 L1054.65 339.72 L1055.41 338.72 L1056.16 337.72 L1056.91 336.71 L1057.65 335.71 L1058.40 334.71 L1059.14 333.71 L1059.89 332.70 L1060.63 331.70 L1061.37 330.70 L1062.10 329.70 L1062.84 328.70 L1063.58 327.69 L1064.31 326.69 L1065.04 325.69 L1065.77 324.69 L1066.50 323.69 L1067.22 322.68 L1067.95 321.68 L1068.67 320.68 L1069.40 319.68 L1070.12 318.67 L1070.83 317.67 L1071.55 316.67 L1072.27 315.67 L1072.98 314.67 L1073.70 313.66 L1074.41 312.66 L1075.12 311.66 L1075.83 310.66 L1076.53 309.66 L1077.24 308.65 L1077.94 307.65 L1078.64 306.65 L1079.35 305.65 L1080.05 304.65 L1080.74 303.64 L1081.44 302.64 L1082.14 301.64 L1082.83 300.64 L1083.52 299.64 L1084.22 298.63 L1084.91 297.63 L1085.59 296.63 L1086.28 295.63 L1086.97 294.63 L1087.65 293.62 L1088.34 292.62 L1089.02 291.62 L1089.70 290.62 L1090.38 289.62 L1091.05 288.61 L1091.73 287.61 L1092.41 286.61 L1093.08 285.61 L1093.75 284.61 L1094.42 283.60 L1095.09 282.60 L1095.76 281.60 L1096.43 280.60 L1097.10 279.60 L1097.76 278.59 L1098.43 277.59 L1099.09 276.59 L1099.75 275.59 L1100.41 274.59 L1101.07 273.58 L1101.73 272.58 L1102.38 271.58 L1103.04 270.58 L1103.69 269.58 L1104.34 268.58 L1104.99 267.57 L1105.64 266.57 L1106.29 265.57 L1106.94 264.57 L1107.59 263.57 L1108.23 262.56 L1108.88 261.56 L1109.52 260.56 L1110.16 259.56 L1110.80 258.56 L1111.44 257.56 L1112.08 256.55 L1112.72 255.55 L1113.35 254.55 L1113.99 253.55 L1114.62 252.55 L1115.26 251.54 L1115.89 250.54 L1116.52 249.54 L1117.15 248.54 L1117.77 247.54 L1118.40 246.54 L1119.03 245.53 L1119.65 244.53 L1120.28 243.53 L1120.90 242.53 L1121.52 241.53 L1122.14 240.53 L1122.76 239.52 L1123.38 238.52 L1124.00 237.52 L1124.61 236.52 L1125.23 235.52 L1125.84 234.52 L1126.46 233.51 L1127.07 232.51 L1127.68 231.51 L1128.29 230.51 L1128.90 229.51 L1129.51 228.50 L1130.11 227.50 L1130.72 226.50 L1131.32 225.50 L1131.93 224.50 L1132.53 223.50 L1133.13 222.49 L1133.73 221.49 L1134.33 220.49 L1134.93 219.49 L1135.53 218.49 L1136.13 217.49 L1136.72 216.49 L1137.32 215.48 L1137.91 214.48 L1138.51 213.48 L1139.10 212.48 L1139.69 211.48 L1140.28 210.48 L1140.87 209.47 L1141.46 208.47 L1142.04 207.47 L1142.63 206.47 L1143.21 205.47 L1143.80 204.47 L1144.38 203.46 L1144.97 202.46 L1145.55 201.46 L1146.13 200.46 L1146.71 199.46 L1147.29 198.46 L1147.86 197.45 L1148.44 196.45 L1149.02 195.45 L1149.59 194.45 L1150.17 193.45 L1150.74 192.45 L1151.31 191.45 L1151.88 190.44 L1152.46 189.44 L1153.03 188.44 L1153.59 187.44 L1154.16 186.44 L1154.73 185.44 L1155.30 184.43 L1155.86 183.43 L1156.43 182.43 L1156.99 181.43 L1157.55 180.43 L1158.12 179.43 L1158.68 178.43 L1159.24 177.42 L1159.80 176.42 L1160.36 175.42 L1160.91 174.42 L1161.47 173.42 L1162.03 172.42 L1162.58 171.41 L1163.14 170.41 L1163.69 169.41 L1164.24 168.41 L1164.79 167.41 L1165.35 166.41 L1165.90 165.41 L1166.45 164.40 L1166.99 163.40 L1167.54 162.40 L1168.09 161.40 L1168.64 160.40 L1169.18 159.40 L1169.73 158.40 L1170.27 157.39 L1170.81 156.39 L1171.36 155.39 L1171.90 154.39 L1172.44 153.39 L1172.98 152.39 L1173.52 151.39 L1174.06 150.38 L1174.59 149.38 L1175.13 148.38 L1175.67 147.38 L1176.20 146.38 L1176.74 145.38 L1177.27 144.38 L1177.80 143.37 L1178.34 142.37 L1178.87 141.37 L1179.40 140.37 L1179.93 139.37 L1180.46 138.37 L1180.99 137.37 L1181.52 136.36 L1182.04 135.36 L1182.57 134.36 L1183.10 133.36 L1183.62 132.36 L1184.14 131.36 L1184.67 130.36 L1185.19 129.35 L1185.71 128.35 L1186.23 127.35 L1186.76 126.35 L1187.28 125.35 L1187.79 124.35 L1188.31 123.35 L1188.83 122.34 L1189.35 121.34 L1189.86 120.34 L1190.38 119.34 L1190.90 118.34 L1191.41 117.34 L1191.92 116.34 L1192.44 115.34 L1192.95 114.33 L1193.46 113.33 L1193.97 112.33 L1194.48 111.33 L1194.99 110.33 L1195.50 109.33 L1196.01 108.33 L1196.51 107.32 L1197.02 106.32 L1197.53 105.32 L1198.03 104.32 L1198.54 103.32 L1199.04 102.32 L1199.55 101.32 L1200.05 100.32 L1200.55 99.31 L1201.05 98.31 L1201.55 97.31 L1202.05 96.31 L1202.55 95.31 L1203.05 94.31 L1203.55 93.31 L1204.05 92.30 L1204.54 91.30 L1205.04 90.30 L1205.54 89.30 L1206.03 88.30 L1206.53 87.30 L1207.02 86.30 L1207.51 85.30 L1208.01 84.29 L1208.50 83.29 L1208.99 82.29 L1209.48 81.29 L1209.97 80.29 L1210.46 79.29 L1210.95 78.29 L1211.44 77.29 L1211.92 76.28 L1212.41 75.28 L1212.90 74.28 L1213.38 73.28 L1213.87 72.28 L1214.35 71.28 L1214.84 70.28 L1215.32 69.28 L1215.80 68.27 L1216.28 67.27 L1216.77 66.27 L1217.25 65.27 L1217.73 64.27 L1218.21 63.27 L1218.69 62.27 L1219.17 61.27 L1219.64 60.26 L1220.12 59.26 L1220.60 58.26 L1221.07 57.26 L1221.55 56.26 L1222.02 55.26 L1222.50 54.26 L1222.97 53.26 L1223.45 52.26 L1223.92 51.25 L1224.39 50.25 L1224.86 49.25 L1225.33 48.25 L1225.80 47.25 L1226.27 46.25 L1226.74 45.25 L1227.21 44.25 L1227.68 43.24 L1228.15 42.24 L1228.62 41.24 L1229.08 40.24 L1229.55 39.24 L1230.01 38.24 L1230.48 37.24 L1230.94 36.24 L1231.41 35.23 L1231.87 34.23 L1232.33 33.23 L1232.80 32.23 L1233.26 31.23 L1233.72 30.23 L1234.18 29.23 L1234.64 28.23 L1235.10 27.23 L1235.56 26.22 L1236.02 25.22 L1236.47 24.22 L1236.93 23.22 L1237.39 22.22 L1237.85 21.22 L1238.30 20.22 L1238.76 19.22 L1239.21 18.22 L1239.67 17.21 L1240.12 16.21 L1240.57 15.21 L1241.03 14.21 L1241.48 13.21 L1241.93 12.21 L1242.38 11.21 L1242.83 10.21 L1243.28 9.20 L1243.73 8.20 L1244.18 7.20 L1244.63 6.20 L1245.08 5.20 L1245.52 4.20 L1245.97 3.20 L1246.42 2.20 L1246.86 1.20 L1247.31 0.19 L1247.75 -0.81 " style="fill:none;stroke:#00FF11;stroke-width:1;" /><path d="M-0.00 700.00 L-0.00 700.00 L1.86 699.00 L3.71 698.00 L5.57 697.00 L7.43 696.00 L9.29 695.00 L11.14 694.00 L13.00 693.00 L14.86 692.00 L16.71 691.00 L18.57 690.00 L20.43 689.00 L22.29 688.00 L24.14 687.00 L26.00 686.00 L27.86 685.00 L29.71 684.00 L31.57 683.00 L33.43 682.00 L35.29 681.00 L37.14 680.00 L39.00 679.00 L40.86 678.00 L42.71 677.00 L44.57 676.00 L46.43 675.00 L48.29 674.00 L50.14 673.00 L52.00 672.00 L53.86 671.00 L55.71 670.00 L57.57 669.00 L59.43 668.00 L61.29 667.00 L63.14 666.00 L65.00 665.00 L66.86 664.00 L68.71 663.00 L70.57 662.00 L72.43 661.00 L74.29 660.00 L76.14 659.00 L78.00 658.00 L79.86 657.00 L81.71 656.00 L83.57 655.00 L85.43 654.00 L87.29 653.00 L89.14 652.00 L91.00 651.00 L92.86 650.00 L94.71 649.00 L96.57 648.00 L98.43 647.00 L100.29 646.00 L102.14 645.00 L104.00 644.00 L105.86 643.00 L107.71 642.00 L109.57 641.00 L111.43 640.00 L113.29 639.00 L115.14 638.00 L117.00 637.00 L118.86 636.00 L120.71 635.00 L122.57 634.00 L124.43 633.00 L126.29 632.00 L128.14 631.00 L130.00 630.00 L131.86 629.00 L133.71 628.00 L135.57 627.00 L137.43 626.00 L139.29 625.00 L141.14 624.00 L143.00 623.00 L144.86 622.00 L146.71 621.00 L148.57 620.00 L150.43 619.00 L152.29 618.00 L154.14 617.00 L156.00 616.00 L157.86 615.00 L159.71 614.00 L161.57 613.00 L163.43 612.00 L165.29 611.00 L167.14 610.00 L169.00 609.00 L170.86 608.00 L172.71 607.00 L174.57 606.00 L176.43 605.00 L178.29 604.00 L180.14 603.00 L182.00 602.00 L183.86 601.00 L185.71 600.00 L187.57 599.00 L189.43 598.00 L191.29 597.00 L193.14 596.00 L195.00 595.00 L196.86 594.00 L198.71 593.00 L200.57 592.00 L202.43 591.00 L204.29 590.00 L206.14 589.00 L208.00 588.00 L209.86 587.00 L211.71 586.00 L213.57 585.00 L215.43 584.00 L217.29 583.00 L219.14 582.00 L221.00 581.00 L222.86 580.00 L224.71 579.00 L226.57 578.00 L228.43 577.00 L230.29 576.00 L232.14 575.00 L234.00 574.00 L235.86 573.00 L237.71 572.00 L239.57 571.00 L241.43 570.00 L243.29 569.00 L245.14 568.00 L247.00 567.00 L248.86 566.00 L250.71 565.00 L252.57 564.00 L254.43 563.00 L256.29 562.00 L258.14 561.00 L260.00 560.00 L261.86 559.00 L263.71 558.00 L265.57 557.00 L267.43 556.00 L269.29 555.00 L271.14 554.00 L273.00 553.00 L274.86 552.00 L276.71 551.00 L278.57 550.00 L280.43 549.00 L282.29 548.00 L284.14 547.00 L286.00 546.00 L287.86 545.00 L289.71 544.00 L291.57 543.00 L293.43 542.00 L295.29 541.00 L297.14 540.00 L299.00 539.00 L300.86 538.00 L302.71 537.00 L304.57 536.00 L306.43 535.00 L308.29 534.00 L310.14 533.00 L312.00 532.00 L313.86 531.00 L315.71 530.00 L317.57 529.00 L319.43 528.00 L321.29 527.00 L323.14 526.00 L325.00 525.00 L326.86 524.00 L328.71 523.00 L330.57 522.00 L332.43 521.00 L334.29 520.00 L336.14 519.00 L338.00 518.00 L339.86 517.00 L341.71 516.00 L343.57 515.00 L345.43 514.00 L347.29 513.00 L349.14 512.00 L351.00 511.00 L352.86 510.00 L354.71 509.00 L356.57 508.00 L358.43 507.00 L360.29 506.00 L362.14 505.00 L364.00 504.00 L365.86 503.00 L367.71 502.00 L369.57 501.00 L371.43 500.00 L373.29 499.00 L375.14 498.00 L377.00 497.00 L378.86 496.00 L380.71 495.00 L382.57 494.00 L384.43 493.00 L386.29 492.00 L388.14 491.00 L390.00 490.00 L391.86 489.00 L393.71 488.00 L395.57 487.00 L397.43 486.00 L399.29 485.00 L401.14 484.00 L403.00 483.00 L404.86 482.00 L406.71 481.00 L408.57 480.00 L410.43 479.00 L412.29 478.00 L414.14 477.00 L416.00 476.00 L417.86 475.00 L419.71 474.00 L421.57 473.00 L423.43 472.00 L425.29 471.00 L427.14 470.00 L429.00 469.00 L430.86 468.00 L432.71 467.00 L434.57 466.00 L436.43 465.00 L438.29 464.00 L440.14 463.00 L442.00 462.00 L443.86 461.00 L445.71 460.00 L447.57 459.00 L449.43 458.00 L451.29 457.00 L453.14 456.00 L455.00 455.00 L456.86 454.00 L458.71 453.00 L460.57 452.00 L462.43 451.00 L464.29 450.00 L466.14 449.00 L468.00 448.00 L469.86 447.00 L471.71 446.00 L473.57 445.00 L475.43 444.00 L477.29 443.00 L479.14 442.00 L481.00 441.00 L482.86 440.00 L484.71 439.00 L486.57 438.00 L488.43 437.00 L490.29 436.00 L492.14 435.00 L494.00 434.00 L495.86 433.00 L497.71 432.00 L499.57 431.00 L501.43 430.00 L503.29 429.00 L505.14 428.00 L507.00 427.00 L508.86 426.00 L510.71 425.00 L512.57 424.00 L514.43 423.00 L516.29 422.00 L518.14 421.00 L520.00 420.00 L521.86 419.00 L523.71 418.00 L525.57 417.00 L527.43 416.00 L529.29 415.00 L531.14 414.00 L533.00 413.00 L534.86 412.00 L536.71 411.00 L538.57 410.00 L540.43 409.00 L542.29 408.00 L544.14 407.00 L546.00 406.00 L547.86 405.00 L549.71 404.00 L551.57 403.00 L553.43 402.00 L555.29 401.00 L557.14 400.00 L559.00 399.00 L560.86 398.00 L562.71 397.00 L564.57 396.00 L566.43 395.00 L568.29 394.00 L570.14 393.00 L572.00 392.00 L573.86 391.00 L575.71 390.00 L577.57 389.00 L579.43 388.00 L581.29 387.00 L583.14 386.00 L585.00 385.00 L586.86 384.00 L588.71 383.00 L590.57 382.00 L592.43 381.00 L594.29 380.00 L596.14 379.00 L598.00 378.00 L599.86 377.00 L601.71 376.00 L603.57 375.00 L605.43 374.00 L607.29 373.00 L609.14 372.00 L611.00 371.00 L612.86 370.00 L614.71 369.00 L616.57 368.00 L618.43 367.00 L620.29 366.00 L622.14 365.00 L624.00 364.00 L625.86 363.00 L627.71 362.00 L629.57 361.00 L631.43 360.00 L633.29 359.00 L635.14 358.00 L637.00 357.00 L638.86 356.00 L640.71 355.00 L642.57 354.00 L644.43 353.00 L646.29 352.00 L648.14 351.00 L650.00 350.00 L651.86 349.00 L653.71 348.00 L655.57 347.00 L657.43 346.00 L659.29 345.00 L661.14 344.00 L663.00 343.00 L664.86 342.00 L666.71 341.00 L668.57 340.00 L670.43 339.00 L672.29 338.00 L674.14 337.00 L676.00 336.00 L677.86 335.00 L679.71 334.00 L681.57 333.00 L683.43 332.00 L685.29 331.00 L687.14 330.00 L689.00 329.00 L690.86 328.00 L692.71 327.00 L694.57 326.00 L696.43 325.00 L698.29 324.00 L700.14 323.00 L702.00 322.00 L703.86 321.00 L705.71 320.00 L707.57 319.00 L709.43 318.00 L711.29 317.00 L713.14 316.00 L715.00 315.00 L716.86 314.00 L718.71 313.00 L720.57 312.00 L722.43 311.00 L724.29 310.00 L726.14 309.00 L728.00 308.00 L729.86 307.00 L731.71 306.00 L733.57 305.00 L735.43 304.00 L737.29 303.00 L739.14 302.00 L741.00 301.00 L742.86 300.00 L744.71 299.00 L746.57 298.00 L748.43 297.00 L750.29 296.00 L752.14 295.00 L754.00 294.00 L755.86 293.00 L757.71 292.00 L759.57 291.00 L761.43 290.00 L763.29 289.00 L765.14 288.00 L767.00 287.00 L768.86 286.00 L770.71 285.00 L772.57 284.00 L774.43 283.00 L776.29 282.00 L778.14 281.00 L780.00 280.00 L781.86 279.00 L783.71 278.00 L785.57 277.00 L787.43 276.00 L789.29 275.00 L791.14 274.00 L793.00 273.00 L794.86 272.00 L796.71 271.00 L798.57 270.00 L800.43 269.00 L802.29 268.00 L804.14 267.00 L806.00 266.00 L807.86 265.00 L809.71 264.00 L811.57 263.00 L813.43 262.00 L815.29 261.00 L817.14 260.00 L819.00 259.00 L820.86 258.00 L822.71 257.00 L824.57 256.00 L826.43 255.00 L828.29 254.00 L830.14 253.00 L832.00 252.00 L833.86 251.00 L835.71 250.00 L837.57 249.00 L839.43 248.00 L841.29 247.00 L843.14 246.00 L845.00 245.00 L846.86 244.00 L848.71 243.00 L850.57 242.00 L852.43 241.00 L854.29 240.00 L856.14 239.00 L858.00 238.00 L859.86 237.00 L861.71 236.00 L863.57 235.00 L865.43 234.00 L867.29 233.00 L869.14 232.00 L871.00 231.00 L872.86 230.00 L874.71 229.00 L876.57 228.00 L878.43 227.00 L880.29 226.00 L882.14 225.00 L884.00 224.00 L885.86 223.00 L887.71 222.00 L889.57 221.00 L891.43 220.00 L893.29 219.00 L895.14 218.00 L897.00 217.00 L898.86 216.00 L900.71 215.00 L902.57 214.00 L904.43 213.00 L906.29 212.00 L908.14 211.00 L910.00 210.00 L911.86 209.00 L913.71 208.00 L915.57 207.00 L917.43 206.00 L919.29 205.00 L921.14 204.00 L923.00 203.00 L924.86 202.00 L926.71 201.00 L928.57 200.00 L930.43 199.00 L932.29 198.00 L934.14 197.00 L936.00 196.00 L937.86 195.00 L939.71 194.00 L941.57 193.00 L943.43 192.00 L945.29 191.00 L947.14 190.00 L949.00 189.00 L950.86 188.00 L952.71 187.00 L954.57 186.00 L956.43 185.00 L958.29 184.00 L960.14 183.00 L962.00 182.00 L963.86 181.00 L965.71 180.00 L967.57 179.00 L969.43 178.00 L971.29 177.00 L973.14 176.00 L975.00 175.00 L976.86 174.00 L978.71 173.00 L980.57 172.00 L982.43 171.00 L984.29 170.00 L986.14 169.00 L988.00 168.00 L989.86 167.00 L991.71 166.00 L993.57 165.00 L995.43 164.00 L997.29 163.00 L999.14 162.00 L1001.00 161.00 L1002.86 160.00 L1004.71 159.00 L1006.57 158.00 L1008.43 157.00 L1010.29 156.00 L1012.14 155.00 L1014.00 154.00 L1015.86 153.00 L1017.71 152.00 L1019.57 151.00 L1021.43 150.00 L1023.29 149.00 L1025.14 148.00 L1027.00 147.00 L1028.86 146.00 L1030.71 145.00 L1032.57 144.00 L1034.43 143.00 L1036.29 142.00 L1038.14 141.00 L1040.00 140.00 L1041.86 139.00 L1043.71 138.00 L1045.57 137.00 L1047.43 136.00 L1049.29 135.00 L1051.14 134.00 L1053.00 133.00 L1054.86 132.00 L1056.71 131.00 L1058.57 130.00 L1060.43 129.00 L1062.29 128.00 L1064.14 127.00 L1066.00 126.00 L1067.86 125.00 L1069.71 124.00 L1071.57 123.00 L1073.43 122.00 L1075.29 121.00 L1077.14 120.00 L1079.00 119.00 L1080.86 118.00 L1082.71 117.00 L1084.57 116.00 L1086.43 115.00 L1088.29 114.00 L1090.14 113.00 L1092.00 112.00 L1093.86 111.00 L1095.71 110.00 L1097.57 109.00 L1099.43 108.00 L1101.29 107.00 L1103.14 106.00 L1105.00 105.00 L1106.86 104.00 L1108.71 103.00 L1110.57 102.00 L1112.43 101.00 L1114.29 100.00 L1116.14 99.00 L1118.00 98.00 L1119.86 97.00 L1121.71 96.00 L1123.57 95.00 L1125.43 94.00 L1127.29 93.00 L1129.14 92.00 L1131.00 91.00 L1132.86 90.00 L1134.71 89.00 L1136.57 88.00 L1138.43 87.00 L1140.29 86.00 L1142.14 85.00 L1144.00 84.00 L1145.86 83.00 L1147.71 82.00 L1149.57 81.00 L1151.43 80.00 L1153.29 79.00 L1155.14 78.00 L1157.00 77.00 L1158.86 76.00 L1160.71 75.00 L1162.57 74.00 L1164.43 73.00 L1166.29 72.00 L1168.14 71.00 L1170.00 70.00 L1171.86 69.00 L1173.71 68.00 L1175.57 67.00 L1177.43 66.00 L1179.29 65.00 L1181.14 64.00 L1183.00 63.00 L1184.86 62.00 L1186.71 61.00 L1188.57 60.00 L1190.43 59.00 L1192.29 58.00 L1194.14 57.00 L1196.00 56.00 L1197.86 55.00 L1199.71 54.00 L1201.57 53.00 L1203.43 52.00 L1205.29 51.00 L1207.14 50.00 L1209.00 49.00 L1210.86 48.00 L1212.71 47.00 L1214.57 46.00 L1216.43 45.00 L1218.29 44.00 L1220.14 43.00 L1222.00 42.00 L1223.86 41.00 L1225.71 40.00 L1227.57 39.00 L1229.43 38.00 L1231.29 37.00 L1233.14 36.00 L1235.00 35.00 L1236.86 34.00 L1238.71 33.00 L1240.57 32.00 L1242.43 31.00 L1244.29 30.00 L1246.14 29.00 L1248.00 28.00 L1249.86 27.00 L1251.71 26.00 L1253.57 25.00 L1255.43 24.00 L1257.29 23.00 L1259.14 22.00 L1261.00 21.00 L1262.86 20.00 L1264.71 19.00 L1266.57 18.00 L1268.43 17.00 L1270.29 16.00 L1272.14 15.00 L1274.00 14.00 L1275.86 13.00 L1277.71 12.00 L1279.57 11.00 L1281.43 10.00 L1283.29 9.00 L1285.14 8.00 L1287.00 7.00 L1288.86 6.00 L1290.71 5.00 L1292.57 4.00 L1294.43 3.00 L1296.29 2.00 L1298.14 1.00 L1300.00 0.00 " style="fill:none;stroke:#000000;stroke-width:1;" /></g></svg>